<?xml version="1.0" encoding="utf-8"?>
<!-- Generator: Adobe Illustrator 19.2.1, SVG Export Plug-In . SVG Version: 6.00 Build 0)  -->
<svg version="1.1" xmlns="http://www.w3.org/2000/svg" xmlns:xlink="http://www.w3.org/1999/xlink" x="0px" y="0px"
	 viewBox="0 0 103 103" style="enable-background:new 0 0 103 103;" xml:space="preserve">
<style type="text/css">
	.st0{fill:#FFFFFF;}
</style>
<g id="Слой_2">
</g>
<g id="Слой_1">
	<path class="st0" d="M51.8,102.5c-27.8,0-50.3-22.6-50.3-50.3S24.1,1.8,51.8,1.8s50.3,22.6,50.3,50.3S79.6,102.5,51.8,102.5z
		 M51.8,3.8C25.2,3.8,3.5,25.5,3.5,52.2c0,26.7,21.7,48.3,48.3,48.3c26.7,0,48.3-21.7,48.3-48.3C100.2,25.5,78.5,3.8,51.8,3.8z"/>
	<polygon class="st0" points="51.9,69.5 51.2,69.5 34,52.5 34.7,51.8 51.6,68.4 69,51.8 69.7,52.5 	"/>
	<rect x="51.1" y="33.8" class="st0" width="1" height="35.4"/>
</g>
</svg>
