<?xml version="1.0" encoding="utf-8"?>
<!-- Generator: Adobe Illustrator 19.0.0, SVG Export Plug-In . SVG Version: 6.00 Build 0)  -->
<svg version="1.1" id="Слой_1" xmlns="http://www.w3.org/2000/svg" xmlns:xlink="http://www.w3.org/1999/xlink" x="0px" y="0px"
	 viewBox="0 0 326.6 171.3" style="enable-background:new 0 0 326.6 171.3;" xml:space="preserve">
<style type="text/css">
	.st0{fill:url(#XMLID_60_);}
	.st1{fill:#F9D9D9;}
	.st2{fill:url(#XMLID_61_);}
	.st3{fill:none;stroke:#000000;stroke-miterlimit:10;}
	.st4{fill:#1D1D1B;}
	.st5{fill:#D83F3F;}
	.st6{fill:#FFFFFF;}
	.st7{fill:#35A8E0;}
	.st8{fill:#92D3EF;}
	.st9{fill:#AFDDF2;}
	.st10{fill:#8087C1;}
	.st11{fill:#FCC75D;}
	.st12{fill:#CA2B34;}
	.st13{fill:#E04048;}
	.st14{fill:#F0D2AC;}
	.st15{fill:#E6948D;}
	.st16{fill:#D3D3D3;}
	.st17{fill:#B7D69C;}
	.st18{fill:#CCDFA3;}
	.st19{fill:#EBEEBF;}
	.st20{fill:#FCF7CF;}
</style>
<g id="XMLID_1_">
	<g id="pink">
		<g id="XMLID_18_">
			
				<linearGradient id="XMLID_60_" gradientUnits="userSpaceOnUse" x1="54.0526" y1="176.2403" x2="42.7559" y2="141.9034" gradientTransform="matrix(0.9765 0.2155 -0.2155 0.9765 152.115 -106.8275)">
				<stop  offset="0" style="stop-color:#6D6B6B;stop-opacity:0"/>
				<stop  offset="0.1841" style="stop-color:#5F5D5D;stop-opacity:0.1841"/>
				<stop  offset="0.5313" style="stop-color:#3B3939;stop-opacity:0.5313"/>
				<stop  offset="1" style="stop-color:#000000"/>
			</linearGradient>
			<path id="XMLID_16_" class="st0" d="M201.2,17.4L140.4,1.9l-14.6,66.4c21.6,4.4,49.4,9.8,63.9,10.8
				C192.9,57.7,201.2,17.4,201.2,17.4z"/>
			<path id="XMLID_14_" class="st1" d="M161.5,70.3c1.7-0.5,3.3-0.9,5-1.2c0.8-0.2,1.5-0.3,2.3-0.4c0.8-0.2,1.7-0.3,2.5-0.5
				c0.8-0.1,0.4,0,0,0c1.5-0.1,3.2-0.6,4.6-1c1.6-0.4,3.1-0.9,4.6-1.5c2.8-1.1,5.7-0.1,7.6,1.9c1-0.3,2.1-0.7,2.6-1.2
				c0,0,1.1-0.7,2.1-4.5l10.4-47.3L139,0.3l-15,68l3,0.7c5.4,1.2,17.4,3.2,28.4,2.4c1.6-0.1,3.1-0.2,4.6-0.4
				C160.4,70.7,161,70.4,161.5,70.3z"/>
			
				<linearGradient id="XMLID_61_" gradientUnits="userSpaceOnUse" x1="721.2663" y1="4.5676" x2="725.707" y2="-4.1803" gradientTransform="matrix(1.0073 0.2236 0.2168 -0.9762 -560.9928 -94.8262)">
				<stop  offset="0.4049" style="stop-color:#FCFBF4"/>
				<stop  offset="0.5552" style="stop-color:#F9F7F0"/>
				<stop  offset="0.718" style="stop-color:#F0EAE5"/>
				<stop  offset="0.8861" style="stop-color:#E0D4D2"/>
				<stop  offset="1" style="stop-color:#D3C1C1"/>
			</linearGradient>
			<path id="XMLID_13_" class="st2" d="M181.6,57.8c0,0,2.8,7.6,9.2,8.6c-0.5,0.7-2.9,1.5-7,2.2c-10,1.7-28.4,3.5-37.8,2.9
				C146,71.4,169.3,69.8,181.6,57.8z"/>
		</g>
		<g id="XMLID_27_">
			<line id="color2_80_" class="st3" x1="150.5" y1="7.4" x2="152.7" y2="8.9"/>
			<line id="color2_79_" class="st3" x1="149.9" y1="8" x2="151.4" y2="10.1"/>
			<line id="color2_78_" class="st3" x1="148.9" y1="8.6" x2="149.8" y2="11"/>
			<line id="color2_77_" class="st3" x1="147.2" y1="3.4" x2="146.2" y2="1.1"/>
			<line id="color2_76_" class="st3" x1="146.6" y1="3.9" x2="144.8" y2="2"/>
			<line id="color2_75_" class="st3" x1="145.8" y1="4.8" x2="143.6" y2="3.4"/>
			<path id="color2_74_" class="st4" d="M150.9,8.6c-1.9,1.6-4.5,1.6-5.8,0c-1.3-1.6-0.8-4.1,1.1-5.7c1.9-1.6,4.5-1.6,5.8,0
				C153.3,4.4,152.8,7,150.9,8.6"/>
			<path id="color2_73_" class="st3" d="M152.7,4.3c0,0,0.9-0.6,2,0.4"/>
			<path id="color2_72_" class="st3" d="M151,2.3c0,0,0.7-0.7,0-2.1"/>
			<path id="color2_71_" d="M154.9,4.9c-0.1,0.1-0.2,0.1-0.3,0s-0.1-0.2,0-0.3c0.1-0.1,0.2-0.1,0.3,0C155,4.7,155,4.8,154.9,4.9"/>
			<path id="color2_70_" d="M151.2,0.4c-0.1,0.1-0.2,0.1-0.3,0c-0.1-0.1-0.1-0.2,0-0.3c0.1-0.1,0.2-0.1,0.3,0
				C151.3,0.2,151.2,0.3,151.2,0.4"/>
			<path id="color1_8_" class="st5" d="M152,2.9C152,2.9,152,2.9,152,2.9l-6.5,6.4c0,0,0,0,0,0c1.5,1.5,4.1,1.2,5.9-0.5
				C153.3,7,153.5,4.4,152,2.9"/>
			<path id="color1_7_" class="st5" d="M152,2.8C152,2.9,152,2.9,152,2.8L144.4,8c0,0,0,0,0,0c-1.2-1.7-0.4-4.3,1.7-5.7
				C148.1,0.9,150.8,1.1,152,2.8"/>
			<path id="color2_69_" d="M150.1,9.2c-0.5,0.4-1.1,0.3-1.5-0.2c-0.4-0.5-0.3-1.1,0.1-1.5c0.5-0.4,1.1-0.3,1.5,0.2
				C150.7,8.2,150.6,8.9,150.1,9.2"/>
			<path id="color2_68_" d="M151.5,8.2c-0.2,0.1-0.4,0.1-0.6-0.1c-0.1-0.2-0.1-0.4,0.1-0.6c0.2-0.1,0.4-0.1,0.6,0.1
				C151.7,7.8,151.6,8,151.5,8.2"/>
			<path id="color2_67_" d="M147.6,9.6c-0.2,0.1-0.4,0.1-0.5-0.1c-0.1-0.2-0.1-0.4,0-0.5c0.2-0.1,0.4-0.1,0.5,0.1
				C147.7,9.2,147.7,9.5,147.6,9.6"/>
			<path id="color2_66_" d="M149.7,6.8c-0.1,0.1-0.3,0.1-0.4,0c-0.1-0.1-0.1-0.3,0-0.4c0.1-0.1,0.3-0.1,0.4,0
				C149.8,6.5,149.8,6.7,149.7,6.8"/>
			<path id="color2_65_" d="M145.4,3.4c-0.5,0.4-0.5,1.1-0.1,1.5c0.4,0.5,1.1,0.5,1.5,0.2c0.5-0.4,0.5-1.1,0.1-1.5
				S145.8,3.1,145.4,3.4"/>
			<path id="color2_64_" d="M146.7,2.4c-0.2,0.1-0.2,0.4-0.1,0.6c0.1,0.2,0.4,0.2,0.6,0.1c0.2-0.1,0.2-0.4,0.1-0.6
				C147.1,2.2,146.9,2.2,146.7,2.4"/>
			<path id="color2_63_" d="M144.5,5.9c-0.2,0.1-0.2,0.3,0,0.5c0.1,0.2,0.4,0.2,0.5,0.1c0.2-0.1,0.2-0.3,0-0.5
				C144.9,5.8,144.7,5.8,144.5,5.9"/>
			<path id="color2_62_" d="M147.7,4.4c-0.1,0.1-0.1,0.2,0,0.4c0.1,0.1,0.3,0.1,0.4,0c0.1-0.1,0.1-0.2,0-0.4
				C148,4.3,147.8,4.3,147.7,4.4"/>
			<path id="color2_61_" class="st4" d="M150.3,4c0.9,1.1,1.7,2.3,2.2,3.4c0.7-1.5,0.6-3.3-0.5-4.6c-1-1.3-2.7-1.7-4.3-1.4
				C148.7,2.1,149.6,3,150.3,4"/>
			<path id="eyes_5_" class="st6" d="M150.3,4.3c-0.6,0.5-1.4,0.4-1.9-0.2s-0.4-1.4,0.2-1.9c0.6-0.5,1.4-0.4,1.9,0.2
				S150.9,3.8,150.3,4.3"/>
			<path id="eyes_4_" class="st6" d="M152,6.3c-0.6,0.5-1.4,0.4-1.9-0.2c-0.5-0.6-0.4-1.4,0.2-1.9c0.6-0.5,1.4-0.4,1.9,0.2
				C152.7,5,152.6,5.9,152,6.3"/>
			<path id="eyes_3_" d="M150.3,3.2c-0.1,0.1-0.2,0.1-0.3,0s-0.1-0.2,0-0.3c0.1-0.1,0.2-0.1,0.3,0C150.4,3,150.4,3.1,150.3,3.2"/>
			<path id="eyes_2_" d="M151.7,4.8c-0.1,0.1-0.2,0.1-0.3,0c-0.1-0.1-0.1-0.2,0-0.3c0.1-0.1,0.2-0.1,0.3,0
				C151.8,4.6,151.8,4.8,151.7,4.8"/>
		</g>
	</g>
	<g>
		<path id="color1_1_" class="st7" d="M111.5,61.5c0,0-32.3,7-54.2,7.4C38,69.3,0.5,63.4,0.1,64.7c-0.5,1.3,1.3,42.1,1.3,42.1l0.1,0
			c-0.1,1-0.1,2.1-0.1,3.2c0,26.5,24.6,48,55,48s55-21.5,55-48c0-1.8-0.1-3.5-0.3-5.1L111.5,61.5z"/>
		<path id="color4_12_" class="st8" d="M58.8,117.1v39.5c1.6,0,3.2-0.2,4.8-0.3v-38.9C62.1,117.3,60.5,117.2,58.8,117.1"/>
		<path id="color4_11_" class="st8" d="M80.4,122.4v28.9c1.8-1,3.4-2,4.8-3.2v-22.5C83.8,124.5,82.2,123.4,80.4,122.4"/>
		<path id="color4_10_" class="st8" d="M69.6,118.5v36.8c1.7-0.4,3.3-0.8,4.8-1.4v-34.1C72.9,119.3,71.3,118.9,69.6,118.5"/>
		<path id="color4_9_" class="st8" d="M37.3,120.7v32.3c1.5,0.6,3.1,1.2,4.8,1.7v-35.6C40.4,119.6,38.8,120.1,37.3,120.7"/>
		<path id="color4_8_" class="st8" d="M48.1,117.8V156c1.6,0.2,3.2,0.4,4.8,0.5v-39.3C51.2,117.4,49.6,117.5,48.1,117.8"/>
		<path id="color4_7_" class="st8" d="M26.5,128v17.8c1.3,1.5,2.9,2.9,4.8,4.1v-26.1C29.4,125.1,27.8,126.5,26.5,128"/>
		<path id="color3_14_" class="st9" d="M22.8,136.9c0,3.2,1.3,6.2,3.7,8.9V128C24.1,130.7,22.8,133.7,22.8,136.9"/>
		<path id="color3_13_" class="st9" d="M31.3,123.9v26.1c1.8,1.2,3.8,2.2,6,3.1v-32.3C35.1,121.7,33.1,122.7,31.3,123.9"/>
		<path id="color3_12_" class="st9" d="M42.1,119.1v35.6c1.9,0.5,3.9,1,6,1.3v-38.2C46,118.1,44,118.6,42.1,119.1"/>
		<path id="color3_11_" class="st9" d="M57.1,117.1c-1.4,0-2.8,0.1-4.2,0.2v39.3c1.4,0.1,2.8,0.2,4.2,0.2c0.6,0,1.2,0,1.8,0v-39.5
			C58.2,117.1,57.7,117.1,57.1,117.1"/>
		<path id="color3_10_" class="st9" d="M63.6,117.5v38.9c2.1-0.2,4.1-0.6,6-1v-36.8C67.7,118,65.7,117.7,63.6,117.5"/>
		<path id="color3_9_" class="st9" d="M74.4,119.8V154c2.2-0.7,4.2-1.6,6-2.6v-28.9C78.6,121.5,76.6,120.6,74.4,119.8"/>
		<path id="color3_8_" class="st9" d="M85.2,125.7v22.5c3.4-2.9,5.6-6.3,6-10v-2.6C90.8,131.9,88.6,128.5,85.2,125.7"/>
		<path id="color2_4_" class="st10" d="M112.1,157.4c0,0,13-16,2.2-33.5c-6.3-10.2-7.6-8.9-7.6-8.9s-12.6,13.9-10.4,20.3
			C98.5,141.7,112.1,157.4,112.1,157.4"/>
		<path id="color2_3_" class="st10" d="M27.2,152.2c0,0-19-3.4-24.1-23.4c-2-7.8-0.4-11.7-0.4-11.7s18.9,4.7,21.5,10.9
			C26.9,134.2,27.2,152.2,27.2,152.2"/>
		<path id="color5_26_" class="st11" d="M47.2,155.6c0.1,3.3-1.2,6.1-3,6.1c-1.7,0-3.2-2.6-3.3-5.9c-0.1-3.3,1.2-6.1,3-6.1
			C45.7,149.6,47.2,152.3,47.2,155.6"/>
		<path id="color5_25_" class="st11" d="M51.7,154.2c0.1,3.3-1.2,6.1-3,6.1c-1.7,0-3.2-2.6-3.3-5.9c-0.1-3.3,1.2-6.1,3-6.1
			C50.1,148.2,51.6,150.9,51.7,154.2"/>
		<path id="color5_24_" class="st11" d="M56.2,155.8c0.1,3.3-1.2,6.1-3,6.1c-1.7,0-3.2-2.6-3.3-5.9c-0.1-3.3,1.2-6.1,3-6.1
			C54.6,149.9,56.1,152.5,56.2,155.8"/>
		<path id="color5_23_" class="st11" d="M63.2,156.1c0.1,3.3-1.2,6.1-3,6.1c-1.7,0-3.2-2.6-3.3-5.9c-0.1-3.3,1.2-6.1,3-6.1
			C61.6,150.1,63.1,152.7,63.2,156.1"/>
		<path id="color5_22_" class="st11" d="M67.6,154.7c0.1,3.3-1.2,6.1-3,6.1c-1.7,0-3.2-2.6-3.3-5.9c-0.1-3.3,1.2-6.1,3-6.1
			C66,148.7,67.5,151.3,67.6,154.7"/>
		<path id="color5_21_" class="st11" d="M72.1,156.3c0.1,3.3-1.2,6.1-3,6.1c-1.7,0-3.2-2.6-3.3-5.9c-0.1-3.3,1.2-6.1,3-6.1
			C70.5,150.3,72,152.9,72.1,156.3"/>
		<polygon class="st11" points="74.8,109.2 56.4,128.9 37.8,109.4 		"/>
		<path id="eyes_16_" class="st6" d="M60.5,105.3c0,13.2-11.1,23.8-24.8,23.8s-24.8-10.7-24.8-23.8c0-13.2,11.1-23.8,24.8-23.8
			S60.5,92.2,60.5,105.3"/>
		<path id="eyes_15_" class="st6" d="M101.1,104.8c0,13.2-11.1,23.8-24.8,23.8c-13.7,0-24.8-10.7-24.8-23.8
			c0-13.2,11.1-23.8,24.8-23.8C90,80.9,101.1,91.6,101.1,104.8"/>
		<path id="eyes_14_" class="st4" d="M52.1,98.5c0,1.8-1.5,3.2-3.4,3.2c-1.9,0-3.4-1.4-3.4-3.2s1.5-3.2,3.4-3.2
			C50.6,95.3,52.1,96.8,52.1,98.5"/>
		<path id="eyes_13_" class="st4" d="M87.4,98.5c0,1.8-1.5,3.2-3.4,3.2c-1.9,0-3.4-1.4-3.4-3.2s1.5-3.2,3.4-3.2
			C85.9,95.3,87.4,96.8,87.4,98.5"/>
		<g>
			<g>
				
					<rect x="112" y="115.8" transform="matrix(0.9022 0.4314 -0.4314 0.9022 71.4765 -35.133)" class="st12" width="2.4" height="48.5"/>
				
					<rect x="114.2" y="116.8" transform="matrix(0.9022 0.4314 -0.4314 0.9022 72.128 -35.9569)" class="st13" width="2.4" height="48.5"/>
				
					<rect x="116.3" y="117.8" transform="matrix(0.9022 0.4314 -0.4314 0.9022 72.7794 -36.7809)" class="st12" width="2.4" height="48.5"/>
			</g>
			<path class="st14" d="M128.6,113.3l-6,4.3c0,0-1.2,5.3,2.1,1c0,0-1.8,6,2.1,1c0,0-0.1,2.9,2.1,1L128.6,113.3z"/>
			<polyline class="st13" points="128.7,115.5 128.6,113.3 126.8,114.6 			"/>
			<path class="st15" d="M102.7,171.1l-2.8-1.3c-1-0.5-1.4-1.7-0.9-2.7l2.7-5.7l6.4,3.1l-2.7,5.7
				C104.9,171.1,103.7,171.6,102.7,171.1z"/>
			
				<rect x="101.3" y="160" transform="matrix(0.9022 0.4314 -0.4314 0.9022 80.5283 -29.3148)" class="st16" width="7.1" height="5.7"/>
			<polyline class="st16" points="106.1,160.3 109.3,161.9 106.9,167 103.7,165.4 			"/>
		</g>
	</g>
	<g>
		<path id="color5_20_" class="st17" d="M279.7,39.3c-2,0.1-3.9,0.2-5.7,0.2v93.1c1.9-0.1,3.8-0.3,5.7-0.6V39.3"/>
		<path id="color5_19_" class="st17" d="M254.3,38.6c-1.9-0.2-3.8-0.4-5.7-0.7V129c1.8,0.7,3.7,1.3,5.7,1.8V38.6"/>
		<path id="color5_18_" class="st17" d="M292.4,38.3c-1.9,0.2-3.8,0.3-5.7,0.5v91.6c1.9-0.6,3.8-1.2,5.7-2V38.3"/>
		<path id="color5_17_" class="st17" d="M305.2,37c-1.8,0.2-3.7,0.4-5.7,0.6v87.5c2-1.1,3.9-2.4,5.7-3.7V37"/>
		<path id="color5_16_" class="st17" d="M326.6,35.2c-0.1-0.2-0.6-0.2-1.6-0.2v53.4c0.2-1.9,0.4-3.8,0.4-5.7c0-1.2-0.1-2.3-0.1-3.4
			l0.1,0C325.3,79.3,327,36.6,326.6,35.2"/>
		<path id="color5_15_" class="st17" d="M317.9,35.6c-1.7,0.2-3.6,0.4-5.7,0.6v78.8c2.1-2.3,4-4.7,5.7-7.3V35.6"/>
		<path id="color5_14_" class="st17" d="M241.5,36.9c-1.9-0.3-3.8-0.6-5.7-0.9v86.3c1.8,1.3,3.7,2.5,5.7,3.5V36.9"/>
		<path id="color5_13_" class="st17" d="M267,39.6c-1.8-0.1-3.7-0.2-5.7-0.3v93c1.9,0.3,3.8,0.4,5.7,0.5V39.6"/>
		<path id="color5_12_" class="st17" d="M228.8,34.8c-2.1-0.4-4-0.7-5.7-1.1v76c1.7,2.4,3.6,4.7,5.7,6.7V34.8"/>
		<path id="color5_11_" class="st17" d="M214.8,77.3c-0.2,1.7-0.3,3.5-0.3,5.4c0,4.2,0.6,8.3,1.6,12.1V32.2
			c-1.1-0.2-1.7-0.4-1.7-0.4L214.8,77.3"/>
		<path id="color6_18_" class="st18" d="M324.9,35c-1.5,0-3.9,0.3-7.1,0.6v72.1c3.7-5.8,6.2-12.4,7.1-19.4V35"/>
		<path id="color6_17_" class="st18" d="M312.2,36.2c-2.2,0.2-4.6,0.5-7.1,0.8v84.4c2.6-1.9,4.9-4,7.1-6.3V36.2"/>
		<path id="color6_16_" class="st18" d="M299.5,37.6c-2.3,0.2-4.7,0.5-7.1,0.7v90.2c2.4-1,4.8-2.1,7.1-3.4V37.6"/>
		<path id="color6_15_" class="st18" d="M286.8,38.9c-2.4,0.2-4.8,0.4-7.1,0.5v92.7c2.4-0.4,4.8-0.9,7.1-1.6V38.9"/>
		<path id="color6_14_" class="st18" d="M269,39.6c-0.7,0-1.3,0-2-0.1v93.3c1,0,1.9,0.1,2.9,0.1c1.4,0,2.8-0.1,4.2-0.2V39.6
			C272.3,39.6,270.6,39.6,269,39.6"/>
		<path id="color6_13_" class="st18" d="M261.3,39.2c-2.3-0.2-4.7-0.4-7.1-0.7v92.3c2.3,0.6,4.6,1.1,7.1,1.4V39.2"/>
		<path id="color6_3_" class="st18" d="M248.6,37.9c-2.4-0.3-4.7-0.6-7.1-1v88.9c2.3,1.2,4.6,2.3,7.1,3.2V37.9"/>
		<path id="color6_2_" class="st18" d="M235.9,36c-2.5-0.4-4.9-0.8-7.1-1.2v81.6c2.2,2.2,4.5,4.1,7.1,5.9V36"/>
		<path id="color6_1_" class="st18" d="M223.2,33.7c-3.1-0.6-5.5-1.1-7.1-1.4v62.5c1.5,5.3,3.9,10.3,7.1,14.8V33.7"/>
		<path id="color8_2_" class="st19" d="M234.7,110.8c0-11.4,15.4-20.7,34.5-20.7c19,0,34.5,9.3,34.5,20.7
			c0,11.4-15.4,20.7-34.5,20.7C250.2,131.5,234.7,122.3,234.7,110.8"/>
		<polygon id="color9_28_" class="st11" points="288.6,83.5 269.8,103.8 251.4,83.2 		"/>
		<path id="color9_27_" class="st11" d="M279.8,128.6c0.1-3.5,1.6-6.3,3.4-6.2c1.7,0.1,3,2.9,2.9,6.4c-0.1,3.5-1.6,6.3-3.4,6.2
			C281,134.9,279.6,132,279.8,128.6"/>
		<path id="color9_26_" class="st11" d="M275.3,127.1c0.1-3.5,1.6-6.3,3.4-6.2c1.7,0.1,3,2.9,2.9,6.4c-0.1,3.5-1.6,6.3-3.4,6.2
			S275.2,130.5,275.3,127.1"/>
		<path id="color9_25_" class="st11" d="M270.8,128.7c0.1-3.5,1.6-6.3,3.4-6.2c1.7,0.1,3,2.9,2.9,6.4c-0.1,3.5-1.6,6.3-3.4,6.2
			C271.9,135,270.6,132.2,270.8,128.7"/>
		<path id="color9_24_" class="st11" d="M264.5,128.9c-0.1-3.5,1.3-6.3,3-6.4c1.7,0,3.2,2.8,3.3,6.2c0.1,3.5-1.3,6.3-3,6.4
			C266,135.2,264.6,132.4,264.5,128.9"/>
		<path id="color9_23_" class="st11" d="M260,127.7c-0.1-3.5,1.3-6.3,3-6.4s3.2,2.8,3.3,6.2c0.1,3.5-1.3,6.3-3,6.4
			C261.5,134,260,131.2,260,127.7"/>
		<path id="color9_22_" class="st11" d="M255.5,129.6c-0.1-3.5,1.3-6.3,3-6.4c1.7,0,3.2,2.8,3.3,6.2c0.1,3.5-1.3,6.3-3,6.4
			C257,135.9,255.6,133.1,255.5,129.6"/>
		<path id="color7_4_" class="st20" d="M213.2,132.2c0,0,14.2-16.5,16.6-23.1c2.4-6.6-8.6-19.3-8.6-19.3s-2.2-2.8-9.6,7.9
			C199.4,115.5,213.2,132.2,213.2,132.2"/>
		<path id="color7_3_" class="st20" d="M299.2,126.8c0,0,0.5-21.7,3.2-28.3C305,92,323.9,90,323.9,90s3.2-0.8-0.4,12.2
			C317.7,123.1,299.2,126.8,299.2,126.8"/>
		<path id="eyes_12_" class="st6" d="M265.8,77.7c0-13.8,11.2-24.9,24.9-25c13.8,0,25,11.2,25,25s-11.2,25-25,25
			C276.9,102.7,265.8,91.5,265.8,77.7"/>
		<path id="eyes_11_" class="st6" d="M224.8,77.2c0-13.8,11.2-25,24.9-25c13.8,0,24.9,11.2,24.9,25c0,13.8-11.2,25-24.9,25
			C236,102.1,224.8,91,224.8,77.2"/>
		<path id="eyes_10_" class="st4" d="M272.3,72.7c0-1.9,1.5-3.4,3.4-3.4s3.4,1.5,3.4,3.4c0,1.9-1.5,3.4-3.4,3.4
			S272.3,74.6,272.3,72.7"/>
		<path id="eyes_1_" class="st4" d="M236.7,72.7c0-1.9,1.5-3.4,3.4-3.4c1.9,0,3.4,1.5,3.4,3.4c0,1.9-1.5,3.4-3.4,3.4
			C238.2,76.1,236.7,74.6,236.7,72.7"/>
		<g>
			<g>
				
					<rect x="203.5" y="91.4" transform="matrix(0.9066 -0.4219 0.4219 0.9066 -29.6787 97.1517)" class="st12" width="2.4" height="48.5"/>
				
					<rect x="205.6" y="90.4" transform="matrix(0.9066 -0.4219 0.4219 0.9066 -29.0549 97.9666)" class="st13" width="2.4" height="48.5"/>
				
					<rect x="207.8" y="89.4" transform="matrix(0.9066 -0.4219 0.4219 0.9066 -28.431 98.7814)" class="st12" width="2.4" height="48.5"/>
			</g>
			<path class="st14" d="M193.8,86.7l-0.5,7.4c0,0,3.3,4.3,2.2-1c0,0,3.5,5.2,2.2-1c0,0,2.1,1.9,2.2-1L193.8,86.7z"/>
			<polyline class="st13" points="195.6,88 193.8,86.7 193.7,89 			"/>
			<path class="st15" d="M222,143.5l-2.8,1.3c-1,0.5-2.2,0-2.7-1l-2.7-5.7l6.5-3l2.7,5.7C223.4,141.8,223,143,222,143.5z"/>
			
				<rect x="213.5" y="133.7" transform="matrix(0.9066 -0.4219 0.4219 0.9066 -37.3624 104.3264)" class="st16" width="7.1" height="5.7"/>
			<polyline class="st16" points="215.8,134 219.1,132.5 221.5,137.7 218.2,139.2 			"/>
		</g>
	</g>
</g>
</svg>
